Coordinates
version=1
nRows=9
nColumns=63
inDegrees=yes

Units are S.I. units (second, meters, Newtons, ...)
If the header above contains a line with 'inDegrees', this indicates whether rotational values are in degrees (yes) or radians (no).

endheader
time	pelvis_tilt	pelvis_list	pelvis_rotation	pelvis_tx	pelvis_ty	pelvis_tz	hip_flexion_r	hip_adduction_r	hip_rotation_r	knee_angle_r	knee_angle_r_beta	ankle_angle_r	subtalar_angle_r	mtp_angle_r	hip_flexion_l	hip_adduction_l	hip_rotation_l	knee_angle_l	knee_angle_l_beta	ankle_angle_l	subtalar_angle_l	mtp_angle_l	L5_S1_Flex_Ext	L5_S1_Lat_Bending	L5_S1_axial_rotation	L4_L5_Flex_Ext	L4_L5_Lat_Bending	L4_L5_axial_rotation	L3_L4_Flex_Ext	L3_L4_Lat_Bending	L3_L4_axial_rotation	L2_L3_Flex_Ext	L2_L3_Lat_Bending	L2_L3_axial_rotation	L1_L2_Flex_Ext	L1_L2_Lat_Bending	L1_L2_axial_rotation	L1_T12_Flex_Ext	L1_T12_Lat_Bending	L1_T12_axial_rotation	Abs_r3	Abs_r2	Abs_r1	Abs_t1	Abs_t2	neck_flexion	neck_bending	neck_rotation	arm_flex_r	arm_add_r	arm_rot_r	elbow_flex_r	pro_sup_r	wrist_flex_r	wrist_dev_r	arm_flex_l	arm_add_l	arm_rot_l	elbow_flex_l	pro_sup_l	wrist_flex_l	wrist_dev_l
0.000000	-3.091536	-5.839021	86.893073	0.181779	0.871750	0.703593	6.495870	-3.413641	-9.214014	15.925968	0.277961	26.647414	17.979187	0.000000	3.458120	1.113147	-1.044052	11.523207	0.201118	12.878160	-17.298189	0.000000	-0.178527	-0.082351	-0.238905	-0.331542	-0.109527	-0.253836	-0.293301	-0.200229	-0.253836	-0.204038	-0.200229	-0.209042	-0.165780	-0.167931	-0.194110	-0.102010	-0.127562	-0.179178	-1.275198	-0.931573	-1.328716	0.000000	0.000000	12.534116	-3.081843	-20.810949	7.189621	-10.872868	63.847808	17.904667	51.502523	-15.932372	-12.933169	7.316490	-15.737159	75.655976	20.592557	40.220352	-5.786938	-9.249693
0.016949	-3.198321	-5.823050	87.369362	0.181250	0.870122	0.703714	6.277543	-3.592111	-10.015065	15.972433	0.278772	27.368929	18.144413	0.000000	3.728049	1.144831	-1.759542	12.174795	0.212490	13.912086	-16.923789	0.000000	-0.176718	-0.100930	-0.229258	-0.328183	-0.134237	-0.243587	-0.290330	-0.245401	-0.243587	-0.201971	-0.245401	-0.200601	-0.164100	-0.205816	-0.186273	-0.100977	-0.156340	-0.171944	-1.262280	-1.141739	-1.275067	0.000000	0.000000	11.703646	-3.211648	-21.625742	6.849333	-10.938123	62.397710	17.971755	53.101734	-15.996297	-12.738866	8.241297	-15.510115	80.992509	20.114203	37.803936	-5.198686	-9.562510
0.033898	-3.258628	-5.783841	87.677918	0.180897	0.868772	0.703755	6.083555	-3.705427	-10.577531	16.022655	0.279648	27.942465	18.260491	0.000000	3.884865	1.149797	-2.332949	12.655949	0.220888	14.820211	-16.604043	0.000000	-0.176941	-0.112309	-0.216030	-0.328596	-0.149371	-0.229532	-0.290696	-0.273068	-0.229532	-0.202225	-0.273068	-0.189026	-0.164307	-0.229021	-0.175524	-0.101104	-0.173967	-0.162023	-1.263869	-1.270462	-1.201494	0.000000	0.000000	11.060202	-3.266866	-22.207391	6.487332	-10.991423	60.748448	18.126024	54.625207	-15.920600	-12.483820	8.963323	-15.309441	85.164998	19.732632	36.006630	-4.734610	-9.707967
0.050847	-3.277399	-5.724640	87.835812	0.180701	0.867680	0.703724	5.912626	-3.760435	-10.926855	16.076204	0.280583	28.380035	18.332460	0.000000	3.940767	1.130954	-2.777555	12.983461	0.226604	15.608403	-16.336288	0.000000	-0.178920	-0.117257	-0.199381	-0.332273	-0.155951	-0.211842	-0.293948	-0.285098	-0.211842	-0.204488	-0.285098	-0.174458	-0.166145	-0.239110	-0.161997	-0.102235	-0.181631	-0.149536	-1.278010	-1.326431	-1.108896	0.000000	0.000000	10.585449	-3.257227	-22.581047	6.108962	-11.033853	58.943588	18.354005	56.074846	-15.729132	-12.179941	9.501739	-15.133645	88.280186	19.439013	34.768521	-4.385644	-9.706435
0.067797	-3.259573	-5.648690	87.860114	0.180648	0.866822	0.703627	5.763476	-3.763979	-11.088480	16.132650	0.281568	28.693652	18.365360	0.000000	3.907955	1.091211	-3.106644	13.174126	0.229932	16.282527	-16.117860	0.000000	-0.182383	-0.116541	-0.179472	-0.338704	-0.154999	-0.190689	-0.299638	-0.283358	-0.190689	-0.208446	-0.283358	-0.157038	-0.169361	-0.237650	-0.145821	-0.104214	-0.180522	-0.134604	-1.302746	-1.318334	-0.998169	0.000000	0.000000	10.261054	-3.192463	-22.771859	5.719569	-11.066496	57.026693	18.642232	57.452551	-15.445744	-11.839139	9.875718	-14.981234	90.444815	19.224513	34.029697	-4.142725	-9.578285
0.084746	-3.210091	-5.559235	87.767894	0.180720	0.866176	0.703471	5.634826	-3.722904	-11.087849	16.191563	0.282596	28.895328	18.364232	0.000000	3.798630	1.033476	-3.333501	13.244736	0.231164	16.848451	-15.946095	0.000000	-0.187056	-0.110930	-0.156465	-0.347382	-0.147537	-0.166244	-0.307314	-0.269715	-0.166244	-0.213786	-0.269715	-0.136907	-0.173700	-0.226208	-0.127128	-0.106884	-0.171830	-0.117349	-1.336122	-1.254860	-0.870211	0.000000	0.000000	10.068683	-3.082304	-22.804978	5.324495	-11.090439	55.041328	18.977237	58.760225	-15.094286	-11.473326	10.104429	-14.850713	91.765625	19.080300	33.730244	-3.996790	-9.343890
0.101695	-3.133892	-5.459521	87.576223	0.180902	0.865719	0.703262	5.525396	-3.644055	-10.950408	16.252513	0.283660	28.997076	18.334117	0.000000	3.624991	0.960659	-3.471410	13.212085	0.230594	17.312041	-15.818329	0.000000	-0.192664	-0.101191	-0.130521	-0.357797	-0.134584	-0.138679	-0.316528	-0.246037	-0.138679	-0.220196	-0.246037	-0.114206	-0.178908	-0.206349	-0.106048	-0.110088	-0.156745	-0.097891	-1.376182	-1.144697	-0.725920	0.000000	0.000000	9.990001	-2.936481	-22.705554	4.929086	-11.106767	53.031058	19.345552	59.999771	-14.698609	-11.094410	10.207046	-14.740590	92.349360	18.997541	33.810251	-3.938775	-9.023621
0.118644	-3.035919	-5.352792	87.302170	0.181177	0.865428	0.703007	5.433905	-3.534277	-10.701598	16.315071	0.284752	29.010908	18.280053	0.000000	3.399239	0.875668	-3.533653	13.092965	0.228515	17.679164	-15.731899	0.000000	-0.198934	-0.088094	-0.101802	-0.369441	-0.117164	-0.108165	-0.326829	-0.214191	-0.108165	-0.227362	-0.214191	-0.089077	-0.184730	-0.179640	-0.082714	-0.113671	-0.136457	-0.076351	-1.420969	-0.996532	-0.566192	0.000000	0.000000	10.006675	-2.764725	-22.498738	4.538686	-11.116564	51.039447	19.733709	61.173090	-14.282564	-10.714303	10.202740	-14.649372	92.302759	18.967405	34.209804	-3.959616	-8.637850
0.135593	-2.921109	-5.242291	86.962807	0.181528	0.865283	0.702714	5.359074	-3.400415	-10.366863	16.378807	0.285864	28.948836	18.207082	0.000000	3.133574	0.781413	-3.533516	12.904171	0.225220	17.955687	-15.684140	0.000000	-0.205593	-0.072405	-0.070469	-0.381806	-0.096298	-0.074873	-0.337768	-0.176044	-0.074873	-0.234972	-0.176044	-0.061660	-0.190913	-0.147647	-0.057256	-0.117476	-0.112155	-0.052852	-1.468527	-0.819055	-0.391926	0.000000	0.000000	10.100371	-2.576768	-22.209679	4.158637	-11.120915	49.110059	20.128242	62.282085	-13.870002	-10.344914	10.110681	-14.575565	91.732567	18.981059	34.868992	-4.050250	-8.206947
